# xmcd
#
# Track frame offsets:
#	159
#	5721
#	24836
#	45360
#	64003
#	85128
#	100425
#	114245
#	134322
#	150523
#	166769
#	184741
#	201322
#	220778
#	241166
#	257216
#
# Disc length: 3693 seconds
#
# Revision: 1
# Processed by: cddbd v1.4PL0 Copyright (c) Steve Scherf et al.
# Submitted via: EasyCDDAExtractor 5.0.6
#
DISCID=c90e6b10
DTITLE=Various Artist - Genese
DYEAR=2000
DGENRE=Rap
TTITLE0=Passi - le commencement
TTITLE1=Passi - c'qu'ils veulent
TTITLE2=Passi - rap bizness
TTITLE3=Passi - dieu crea einstein(rough mix)
TTITLE4=Passi - famille et amis(deep mix)
TTITLE5=Passi - www.passiweb.com
TTITLE6=Passi - pour mes supporters
TTITLE7=Passi feat. Biseew Bou Bess et Rcfa - ex-nihilo
TTITLE8=Passi feat. Rita Marley - africa, jamaica
TTITLE9=Passi feat. Stomy Bugsy - le plan b, la cicatrice
TTITLE10=Passi feat. Mpassi - tort ou raison
TTITLE11=Passi - ghetto star
TTITLE12=Passi feat. Bisso Na Bisso - le reve africain
TTITLE13=Passi - 7 societe va mal
TTITLE14=Passi - emeutes
TTITLE15=Passi - ma zik
EXTD=
EXTT0=
EXTT1=
EXTT2=
EXTT3=
EXTT4=
EXTT5=
EXTT6=
EXTT7=
EXTT8=
EXTT9=
EXTT10=
EXTT11=
EXTT12=
EXTT13=
EXTT14=
EXTT15=
PLAYORDER=
